HIERARCHY
ROOT RootJoint
{
    OFFSET   0.000000   0.000000   0.000000
    CHANNELS 6 Xposition Yposition Zposition Xrotation Yrotation Zrotation
    JOINT lHip
    {
        OFFSET   0.100000  -0.051395   0.000000
        CHANNELS 3 Xrotation Yrotation Zrotation
        JOINT lKnee
        {
            OFFSET   0.000000  -0.410000   0.000000
            CHANNELS 3 Xrotation Yrotation Zrotation
            JOINT lAnkle
            {
                OFFSET   0.000000  -0.390000   0.000000
                CHANNELS 3 Xrotation Yrotation Zrotation
                JOINT lToeJoint
                {
                    OFFSET   0.000000  -0.050000   0.130000
                    CHANNELS 3 Xrotation Yrotation Zrotation
                    End Site
                    {
                        OFFSET   0.010000   0.002000   0.060000
                    }
                }
            }
        }
    }
    JOINT rHip
    {
        OFFSET  -0.100000  -0.051395   0.000000
        CHANNELS 3 Xrotation Yrotation Zrotation
        JOINT rKnee
        {
            OFFSET   0.000000  -0.410000   0.000000
            CHANNELS 3 Xrotation Yrotation Zrotation
            JOINT rAnkle
            {
                OFFSET   0.000000  -0.390000   0.000000
                CHANNELS 3 Xrotation Yrotation Zrotation
                JOINT rToeJoint
                {
                    OFFSET   0.000000  -0.050000   0.130000
                    CHANNELS 3 Xrotation Yrotation Zrotation
                    End Site
                    {
                        OFFSET  -0.010000   0.002000   0.060000
                    }
                }
            }
        }
    }
    JOINT pelvis_lowerback
    {
        OFFSET   0.000000   0.093605   0.000000
        CHANNELS 3 Xrotation Yrotation Zrotation
        JOINT lowerback_torso
        {
            OFFSET   0.000000   0.100000   0.000000
            CHANNELS 3 Xrotation Yrotation Zrotation
            JOINT torso_head
            {
                OFFSET   0.000000   0.282350   0.000000
                CHANNELS 3 Xrotation Yrotation Zrotation
                End Site
                {
                    OFFSET   0.000000   0.192650   0.000000
                }
            }
            JOINT lTorso_Clavicle
            {
                OFFSET   0.001000   0.157500   0.000000
                CHANNELS 3 Xrotation Yrotation Zrotation
                JOINT lShoulder
                {
                    OFFSET   0.117647   0.000000   0.000000
                    CHANNELS 3 Xrotation Yrotation Zrotation
                    JOINT lElbow
                    {
                        OFFSET   0.245000   0.000000   0.000000
                        CHANNELS 3 Xrotation Yrotation Zrotation
                        JOINT lWrist
                        {
                            OFFSET   0.240000   0.000000   0.000000
                            CHANNELS 3 Xrotation Yrotation Zrotation
                            End Site
                            {
                                OFFSET   0.116353  -0.002500   0.000000
                            }
                        }
                    }
                }
            }
            JOINT rTorso_Clavicle
            {
                OFFSET  -0.001000   0.157500   0.000000
                CHANNELS 3 Xrotation Yrotation Zrotation
                JOINT rShoulder
                {
                    OFFSET  -0.117647   0.000000   0.000000
                    CHANNELS 3 Xrotation Yrotation Zrotation
                    JOINT rElbow
                    {
                        OFFSET  -0.245000   0.000000   0.000000
                        CHANNELS 3 Xrotation Yrotation Zrotation
                        JOINT rWrist
                        {
                            OFFSET  -0.240000   0.000000   0.000000
                            CHANNELS 3 Xrotation Yrotation Zrotation
                            End Site
                            {
                                OFFSET  -0.116353  -0.002500   0.000000
                            }
                        }
                    }
                }
            }
        }
    }
}
MOTION
Frames: 11
Frame Time:   0.010000
  3.579758   0.946721   0.758348 172.151779   2.948049 -176.762213 -15.548098 -18.788788  -1.391707 -11.266339 -10.016808   2.514050  10.231554  -7.019094 -18.756693   0.000000  -0.000007  -0.000003   7.343208  -1.942772  -6.616402  32.671689  12.345154  -1.464977  18.746169   6.948829  23.101531   0.000007  -0.000001  -0.000003   0.404229   2.767676  -0.516671   1.363922  11.165316  -1.895790 -13.773584  -6.933406  -2.085432  -0.103326  -1.664481  -7.848465  26.578072  18.596098 -56.787431 -78.199834 -81.662156 -111.158008  26.200386  -8.935665   1.841917   0.115067   6.335528   9.707602  42.960003  34.339357  25.607229  64.718063  76.480105 -81.698945  13.808417  17.614803  -1.212430
  3.580246   0.942948   0.735145 172.446333   2.600901 -176.904682 -15.054868 -19.093913  -1.454871 -11.726175  -9.865103   2.447917  10.660569  -6.997206 -19.927100  -0.000002  -0.000004  -0.000001   6.583098  -0.924053  -6.420291  36.670333  11.984717  -1.289919  17.737553   5.992934  22.707270   0.000007  -0.000001  -0.000002   0.482270   2.610884  -0.469964   1.680159  10.543284  -1.739048 -13.993002  -6.905822  -1.681144  -0.129243  -1.316460  -7.787545  26.217852  18.433610 -57.699784 -78.218906 -81.675604 -111.209626  26.063368  -8.795460   1.763298   0.111047   6.509343   9.735750  43.964390  34.586207  24.550751  62.347414  76.425034 -79.191835  13.938095  17.572951  -1.100642
  3.580606   0.938526   0.711856 172.866729   2.202039 -176.904384 -14.623981 -18.847730  -1.855850 -11.345157  -9.952720   2.030256  11.257416  -7.251912 -19.509390  -0.000003  -0.000003   0.000000   5.778254  -0.162078  -6.427006  40.816876  11.856269  -1.066300  16.716011   5.196275  22.262596   0.000006  -0.000001  -0.000002   0.594500   2.434921  -0.469114   2.149691   9.850586  -1.774360 -14.190212  -6.862424  -1.225406  -0.151341  -1.048413  -7.776641  25.678396  18.190254 -58.460092 -78.165503 -81.691126 -111.191921  25.891722  -8.770738   1.718442   0.107314   6.593629   9.793463  44.555635  34.779917  23.945464  59.327108  76.316776 -75.994370  14.168438  17.490299  -0.928793
  3.580707   0.932806   0.688394 173.541896   1.703198 -176.617729 -14.302494 -17.501841  -2.936421  -9.288276 -10.546153   0.920256  12.222990  -8.005757 -15.902486  -0.000001  -0.000004  -0.000001   4.890787   0.095344  -6.859168  45.268571  12.184411  -0.804285  15.674352   4.712676  21.738439   0.000003  -0.000002  -0.000003   0.774665   2.220319  -0.559864   2.918548   9.011410  -2.190752 -14.343193  -6.785823  -0.666825  -0.165078  -0.940250  -7.865999  24.783484  17.780599 -58.919742 -77.966396 -81.710746 -111.034817  25.650373  -8.977350   1.739920   0.104431   6.498857   9.910255  44.305993  34.892190  24.256926  55.057513  76.088093 -71.466177  14.600342  17.327047  -0.636257
  3.580808   0.927085   0.664933 174.219402   1.207774 -176.325277 -13.956913 -16.161952  -4.017201  -7.239269 -11.178334  -0.169598  13.236408  -8.697736 -12.276568   0.000000  -0.000006  -0.000001   4.005271   0.359422  -7.287299  49.724438  12.531462  -0.568816  14.628982   4.238667  21.205896  -0.000001  -0.000002  -0.000003   0.954465   2.005434  -0.649926   3.679520   8.166825  -2.594809 -14.496894  -6.710705  -0.108127  -0.178647  -0.832067  -7.955330  23.887165  17.377827 -59.385009 -77.766447 -81.730287 -110.876870  25.408964  -9.184049   1.760528   0.101743   6.404079  10.027019  44.055270  35.003346  24.569406  50.953204  75.781148 -67.103121  15.032733  17.165905  -0.342699
  3.580909   0.921365   0.641472 174.899330   0.715847 -176.027030 -13.587479 -14.828545  -5.099352  -5.198168 -11.848309  -1.238186  14.293988  -9.324749  -8.632201   0.000001  -0.000008  -0.000002   3.121718   0.630077  -7.711315  54.185051  12.895342  -0.361390  13.579842   3.774441  20.665081  -0.000004  -0.000003  -0.000004   1.133905   1.790267  -0.739302   4.432940   7.317035  -2.986710 -14.651302  -6.637080   0.450687  -0.192046  -0.723862  -8.044632  22.989386  16.982049 -59.855806 -77.565655 -81.749749 -110.718079  25.167488  -9.390833   1.780266   0.099250   6.309295  10.143758  43.803469  35.113377  24.882902  47.047611  75.400883 -62.938588  15.465611  17.006884  -0.048129
  3.580427   0.912403   0.617485 175.599409   0.415242 -175.762176 -12.585640 -14.340106  -5.550636  -2.706013 -12.006825  -2.479281  10.906053  -9.057127  -4.385807   0.000000  -0.000009  -0.000002   1.850857   0.473985  -8.474532  58.736023  13.730916  -0.289774  12.600542   3.684697  20.007372  -0.000002  -0.000002  -0.000002   1.293157   1.597844  -0.862085   5.106386   6.553038  -3.501252 -14.915599  -6.562780   1.227741  -0.183518  -0.917682  -8.188803  21.750373  16.520845 -59.928391 -76.027864 -81.763123 -109.187408  25.091306  -9.672631   1.823695   0.091682   6.021236  10.532527  42.868430  34.861101  26.135562  41.864577  74.724979 -57.355514  15.943687  16.845891  -0.846928
  3.579946   0.903441   0.593499 176.300853   0.117898 -175.493675 -11.581997 -13.859386  -6.009690  -0.216227 -12.217969  -3.713009   7.508711  -9.038155  -0.132523   0.000000  -0.000011  -0.000002   0.578053   0.334872  -9.241009  63.302715  14.569385  -0.286621  11.620367   3.606188  19.348283  -0.000001  -0.000001   0.000000   1.451981   1.405082  -0.984321   5.771936   5.783124  -4.005989 -15.180848  -6.492047   2.005020  -0.175477  -1.111523  -8.332954  20.513659  16.061250 -60.011167 -74.486192 -81.770596 -107.652857  25.015276  -9.954486   1.866781   0.086082   5.733132  10.921057  41.943255  34.592199  27.379113  37.173717  73.927796 -52.263922  16.418962  16.678546  -1.643608
  3.579464   0.894479   0.569512 177.003684  -0.176134 -175.221554 -10.576448 -13.386545  -6.476403   2.270585 -12.481287  -4.937296   4.118293  -9.267992   4.115688  -0.000001  -0.000012  -0.000002  -0.696484   0.212830 -10.010378  67.887270  15.405426  -0.352710  10.639429   3.538947  18.687998   0.000001   0.000000   0.000002   1.610382   1.211981  -1.106013   6.429805   5.007467  -4.501074 -15.447002  -6.424897   2.782514  -0.167924  -1.305384  -8.477088  19.279062  15.603475 -60.104034 -72.942835 -81.772149 -106.116620  24.939394 -10.236397   1.909524   0.082447   5.444998  11.309367  41.028426  34.306921  28.613129  32.970687  73.026448 -47.659318  16.891342  16.504898  -2.438106
  3.578483   0.887148   0.546592 177.445414  -0.239500 -174.664977  -9.980469 -13.578655  -7.164507   4.558854 -12.350862  -5.786108   1.609407  -9.225373   6.481268  -0.000001  -0.000014  -0.000002  -2.664710   0.470529 -11.037856  72.040033  16.231919  -0.534993  10.129567   3.629906  17.975245   0.000002  -0.000001   0.000003   1.749655   1.040918  -1.304046   7.016140   4.309024  -5.294597 -16.127104  -6.361953   3.492236  -0.192622  -1.286261  -8.902423  17.498548  14.766583 -59.744606 -67.886846 -81.665707 -100.911504  25.338388 -10.539802   2.108971   0.083490   4.914688  11.920426  39.675729  33.924922  30.132316  28.452460  71.798206 -42.663573  16.888749  16.334858  -4.059708
  3.577252   0.880633   0.524205 177.755592  -0.185503 -173.967611  -9.595457 -14.104931  -7.959210   6.749995 -12.027181  -6.461024  -0.469098  -9.006711   7.916788   0.000000  -0.000015  -0.000003  -4.971684   0.950949 -12.178050  75.987130  17.042441  -0.801791   9.857232   3.799130  17.237162   0.000003  -0.000002   0.000003   1.878948   0.880539  -1.540119   7.559720   3.643567  -6.234556 -17.014376  -6.308583   4.168686  -0.232247  -1.160311  -9.468267  15.461359  13.723047 -59.189789 -61.357834 -81.409893 -94.155189  25.976605 -10.851387   2.390070   0.093079   4.263366  12.642408  38.120082  33.468682  31.778131  24.228139  70.333557 -37.922362  16.644811  16.175576  -6.094790
